<?xml version="1.0" encoding="UTF-8" standalone="no"?>
<!DOCTYPE svg PUBLIC "-//W3C//DTD SVG 1.1//EN"
 "http://www.w3.org/Graphics/SVG/1.1/DTD/svg11.dtd">
<!-- Generated by graphviz version 2.43.0 (0)
 -->
<!-- Title: %3 Pages: 1 -->
<svg width="1348pt" height="1250pt"
 viewBox="0.00 0.00 1348.00 1250.00" xmlns="http://www.w3.org/2000/svg" xmlns:xlink="http://www.w3.org/1999/xlink">
<g id="graph0" class="graph" transform="scale(1 1) rotate(0) translate(4 1246)">
<title>%3</title>
<polygon fill="white" stroke="transparent" points="-4,4 -4,-1246 1344,-1246 1344,4 -4,4"/>
<g id="clust1" class="cluster">
<title>cluster__nifti2</title>
<polygon fill="none" stroke="black" stroke-dasharray="1,5" points="8,-8 8,-1234 1332,-1234 1332,-8 8,-8"/>
<text text-anchor="middle" x="670" y="-1218.8" font-family="Helvetica,sans-Serif" font-size="14.00">Nifti2</text>
</g>
<g id="clust2" class="cluster">
<title>cluster__header</title>
<polygon fill="none" stroke="black" stroke-dasharray="1,5" points="383,-210 383,-1203 1324,-1203 1324,-210 383,-210"/>
<text text-anchor="middle" x="853.5" y="-1187.8" font-family="Helvetica,sans-Serif" font-size="14.00">Nifti2::Header</text>
</g>
<g id="clust3" class="cluster">
<title>cluster__header_extension</title>
<polygon fill="none" stroke="black" stroke-dasharray="1,5" points="405,-113 405,-202 653,-202 653,-113 405,-113"/>
<text text-anchor="middle" x="529" y="-186.8" font-family="Helvetica,sans-Serif" font-size="14.00">Nifti2::HeaderExtension</text>
</g>
<g id="clust4" class="cluster">
<title>cluster__data</title>
<polygon fill="none" stroke="black" stroke-dasharray="1,5" points="443.5,-16 443.5,-105 614.5,-105 614.5,-16 443.5,-16"/>
<text text-anchor="middle" x="529" y="-89.8" font-family="Helvetica,sans-Serif" font-size="14.00">Nifti2::Data</text>
</g>
<!-- nifti2__seq -->
<g id="node1" class="node">
<title>nifti2__seq</title>
<polygon fill="#e0ffe0" stroke="transparent" points="24.5,-178 24.5,-199 58.5,-199 58.5,-178 24.5,-178"/>
<polygon fill="none" stroke="black" points="24.5,-178 24.5,-199 58.5,-199 58.5,-178 24.5,-178"/>
<text text-anchor="start" x="29" y="-184.8" font-family="Helvetica,sans-Serif" font-size="14.00">pos</text>
<polygon fill="#e0ffe0" stroke="transparent" points="58.5,-178 58.5,-199 92.5,-199 92.5,-178 58.5,-178"/>
<polygon fill="none" stroke="black" points="58.5,-178 58.5,-199 92.5,-199 92.5,-178 58.5,-178"/>
<text text-anchor="start" x="61.5" y="-184.8" font-family="Helvetica,sans-Serif" font-size="14.00">size</text>
<polygon fill="#e0ffe0" stroke="transparent" points="92.5,-178 92.5,-199 217.5,-199 217.5,-178 92.5,-178"/>
<polygon fill="none" stroke="black" points="92.5,-178 92.5,-199 217.5,-199 217.5,-178 92.5,-178"/>
<text text-anchor="start" x="139.5" y="-184.8" font-family="Helvetica,sans-Serif" font-size="14.00">type</text>
<polygon fill="#e0ffe0" stroke="transparent" points="217.5,-178 217.5,-199 347.5,-199 347.5,-178 217.5,-178"/>
<polygon fill="none" stroke="black" points="217.5,-178 217.5,-199 347.5,-199 347.5,-178 217.5,-178"/>
<text text-anchor="start" x="276" y="-184.8" font-family="Helvetica,sans-Serif" font-size="14.00">id</text>
<polygon fill="none" stroke="black" points="24.5,-157 24.5,-178 58.5,-178 58.5,-157 24.5,-157"/>
<text text-anchor="start" x="36.5" y="-163.8" font-family="Helvetica,sans-Serif" font-size="14.00">0</text>
<polygon fill="none" stroke="black" points="58.5,-157 58.5,-178 92.5,-178 92.5,-157 58.5,-157"/>
<text text-anchor="start" x="61.5" y="-163.8" font-family="Helvetica,sans-Serif" font-size="14.00">540</text>
<polygon fill="none" stroke="black" points="92.5,-157 92.5,-178 217.5,-178 217.5,-157 92.5,-157"/>
<text text-anchor="start" x="129.5" y="-163.8" font-family="Helvetica,sans-Serif" font-size="14.00">Header</text>
<polygon fill="none" stroke="black" points="217.5,-157 217.5,-178 347.5,-178 347.5,-157 217.5,-157"/>
<text text-anchor="start" x="258" y="-163.8" font-family="Helvetica,sans-Serif" font-size="14.00">header</text>
<polygon fill="none" stroke="black" points="24.5,-136 24.5,-157 58.5,-157 58.5,-136 24.5,-136"/>
<text text-anchor="start" x="27.5" y="-142.8" font-family="Helvetica,sans-Serif" font-size="14.00">540</text>
<polygon fill="none" stroke="black" points="58.5,-136 58.5,-157 92.5,-157 92.5,-136 58.5,-136"/>
<text text-anchor="start" x="70.5" y="-142.8" font-family="Helvetica,sans-Serif" font-size="14.00">4</text>
<polygon fill="none" stroke="black" points="92.5,-136 92.5,-157 217.5,-157 217.5,-136 92.5,-136"/>
<text text-anchor="start" x="95.5" y="-142.8" font-family="Helvetica,sans-Serif" font-size="14.00">HeaderExtension</text>
<polygon fill="none" stroke="black" points="217.5,-136 217.5,-157 347.5,-157 347.5,-136 217.5,-136"/>
<text text-anchor="start" x="220.5" y="-142.8" font-family="Helvetica,sans-Serif" font-size="14.00">header_extension</text>
<polygon fill="none" stroke="black" points="24.5,-115 24.5,-136 58.5,-136 58.5,-115 24.5,-115"/>
<text text-anchor="start" x="27.5" y="-121.8" font-family="Helvetica,sans-Serif" font-size="14.00">544</text>
<polygon fill="none" stroke="black" points="58.5,-115 58.5,-136 92.5,-136 92.5,-115 58.5,-115"/>
<text text-anchor="start" x="68.5" y="-121.8" font-family="Helvetica,sans-Serif" font-size="14.00">...</text>
<polygon fill="none" stroke="black" points="92.5,-115 92.5,-136 217.5,-136 217.5,-115 92.5,-115"/>
<text text-anchor="start" x="138.5" y="-121.8" font-family="Helvetica,sans-Serif" font-size="14.00">Data</text>
<polygon fill="none" stroke="black" points="217.5,-115 217.5,-136 347.5,-136 347.5,-115 217.5,-115"/>
<text text-anchor="start" x="267" y="-121.8" font-family="Helvetica,sans-Serif" font-size="14.00">data</text>
</g>
<!-- header__seq -->
<g id="node2" class="node">
<title>header__seq</title>
<polygon fill="#e0ffe0" stroke="transparent" points="399,-1146 399,-1167 433,-1167 433,-1146 399,-1146"/>
<polygon fill="none" stroke="black" points="399,-1146 399,-1167 433,-1167 433,-1146 399,-1146"/>
<text text-anchor="start" x="403.5" y="-1152.8" font-family="Helvetica,sans-Serif" font-size="14.00">pos</text>
<polygon fill="#e0ffe0" stroke="transparent" points="433,-1146 433,-1167 467,-1167 467,-1146 433,-1146"/>
<polygon fill="none" stroke="black" points="433,-1146 433,-1167 467,-1167 467,-1146 433,-1146"/>
<text text-anchor="start" x="436" y="-1152.8" font-family="Helvetica,sans-Serif" font-size="14.00">size</text>
<polygon fill="#e0ffe0" stroke="transparent" points="467,-1146 467,-1167 556,-1167 556,-1146 467,-1146"/>
<polygon fill="none" stroke="black" points="467,-1146 467,-1167 556,-1167 556,-1146 467,-1146"/>
<text text-anchor="start" x="496" y="-1152.8" font-family="Helvetica,sans-Serif" font-size="14.00">type</text>
<polygon fill="#e0ffe0" stroke="transparent" points="556,-1146 556,-1167 659,-1167 659,-1146 556,-1146"/>
<polygon fill="none" stroke="black" points="556,-1146 556,-1167 659,-1167 659,-1146 556,-1146"/>
<text text-anchor="start" x="601" y="-1152.8" font-family="Helvetica,sans-Serif" font-size="14.00">id</text>
<polygon fill="none" stroke="black" points="399,-1125 399,-1146 433,-1146 433,-1125 399,-1125"/>
<text text-anchor="start" x="411" y="-1131.8" font-family="Helvetica,sans-Serif" font-size="14.00">0</text>
<polygon fill="none" stroke="black" points="433,-1125 433,-1146 467,-1146 467,-1125 433,-1125"/>
<text text-anchor="start" x="445" y="-1131.8" font-family="Helvetica,sans-Serif" font-size="14.00">4</text>
<polygon fill="none" stroke="black" points="467,-1125 467,-1146 556,-1146 556,-1125 467,-1125"/>
<text text-anchor="start" x="497" y="-1131.8" font-family="Helvetica,sans-Serif" font-size="14.00">s4le</text>
<polygon fill="none" stroke="black" points="556,-1125 556,-1146 659,-1146 659,-1125 556,-1125"/>
<text text-anchor="start" x="571.5" y="-1131.8" font-family="Helvetica,sans-Serif" font-size="14.00">sizeof_hdr</text>
<polygon fill="none" stroke="black" points="399,-1104 399,-1125 433,-1125 433,-1104 399,-1104"/>
<text text-anchor="start" x="411" y="-1110.8" font-family="Helvetica,sans-Serif" font-size="14.00">4</text>
<polygon fill="none" stroke="black" points="433,-1104 433,-1125 467,-1125 467,-1104 433,-1104"/>
<text text-anchor="start" x="445" y="-1110.8" font-family="Helvetica,sans-Serif" font-size="14.00">4</text>
<polygon fill="none" stroke="black" points="467,-1104 467,-1125 556,-1125 556,-1104 467,-1104"/>
<text text-anchor="start" x="476" y="-1110.8" font-family="Helvetica,sans-Serif" font-size="14.00">str(UTF&#45;8)</text>
<polygon fill="none" stroke="black" points="556,-1104 556,-1125 659,-1125 659,-1104 556,-1104"/>
<text text-anchor="start" x="586" y="-1110.8" font-family="Helvetica,sans-Serif" font-size="14.00">magic</text>
<polygon fill="none" stroke="black" points="399,-1083 399,-1104 433,-1104 433,-1083 399,-1083"/>
<text text-anchor="start" x="411" y="-1089.8" font-family="Helvetica,sans-Serif" font-size="14.00">8</text>
<polygon fill="none" stroke="black" points="433,-1083 433,-1104 467,-1104 467,-1083 433,-1083"/>
<text text-anchor="start" x="445" y="-1089.8" font-family="Helvetica,sans-Serif" font-size="14.00">1</text>
<polygon fill="none" stroke="black" points="467,-1083 467,-1104 556,-1104 556,-1083 467,-1083"/>
<text text-anchor="start" x="503" y="-1089.8" font-family="Helvetica,sans-Serif" font-size="14.00">s1</text>
<polygon fill="none" stroke="black" points="556,-1083 556,-1104 659,-1104 659,-1083 556,-1083"/>
<text text-anchor="start" x="581.5" y="-1089.8" font-family="Helvetica,sans-Serif" font-size="14.00">magic2</text>
<polygon fill="none" stroke="black" points="399,-1062 399,-1083 659,-1083 659,-1062 399,-1062"/>
<text text-anchor="start" x="478.5" y="-1068.8" font-family="Helvetica,sans-Serif" font-size="14.00">repeat 4 times</text>
<polygon fill="none" stroke="black" points="399,-1041 399,-1062 433,-1062 433,-1041 399,-1041"/>
<text text-anchor="start" x="406.5" y="-1047.8" font-family="Helvetica,sans-Serif" font-size="14.00">12</text>
<polygon fill="none" stroke="black" points="433,-1041 433,-1062 467,-1062 467,-1041 433,-1041"/>
<text text-anchor="start" x="445" y="-1047.8" font-family="Helvetica,sans-Serif" font-size="14.00">2</text>
<polygon fill="none" stroke="black" points="467,-1041 467,-1062 556,-1062 556,-1041 467,-1041"/>
<text text-anchor="start" x="483" y="-1047.8" font-family="Helvetica,sans-Serif" font-size="14.00">s2le→Dt</text>
<polygon fill="none" stroke="black" points="556,-1041 556,-1062 659,-1062 659,-1041 556,-1041"/>
<text text-anchor="start" x="576.5" y="-1047.8" font-family="Helvetica,sans-Serif" font-size="14.00">datatype</text>
<polygon fill="none" stroke="black" points="399,-1020 399,-1041 433,-1041 433,-1020 399,-1020"/>
<text text-anchor="start" x="406.5" y="-1026.8" font-family="Helvetica,sans-Serif" font-size="14.00">14</text>
<polygon fill="none" stroke="black" points="433,-1020 433,-1041 467,-1041 467,-1020 433,-1020"/>
<text text-anchor="start" x="445" y="-1026.8" font-family="Helvetica,sans-Serif" font-size="14.00">2</text>
<polygon fill="none" stroke="black" points="467,-1020 467,-1041 556,-1041 556,-1020 467,-1020"/>
<text text-anchor="start" x="497" y="-1026.8" font-family="Helvetica,sans-Serif" font-size="14.00">s2le</text>
<polygon fill="none" stroke="black" points="556,-1020 556,-1041 659,-1041 659,-1020 556,-1020"/>
<text text-anchor="start" x="587.5" y="-1026.8" font-family="Helvetica,sans-Serif" font-size="14.00">bitpix</text>
<polygon fill="none" stroke="black" points="399,-999 399,-1020 433,-1020 433,-999 399,-999"/>
<text text-anchor="start" x="406.5" y="-1005.8" font-family="Helvetica,sans-Serif" font-size="14.00">16</text>
<polygon fill="none" stroke="black" points="433,-999 433,-1020 467,-1020 467,-999 433,-999"/>
<text text-anchor="start" x="445" y="-1005.8" font-family="Helvetica,sans-Serif" font-size="14.00">8</text>
<polygon fill="none" stroke="black" points="467,-999 467,-1020 556,-1020 556,-999 467,-999"/>
<text text-anchor="start" x="497" y="-1005.8" font-family="Helvetica,sans-Serif" font-size="14.00">s8le</text>
<polygon fill="none" stroke="black" points="556,-999 556,-1020 659,-1020 659,-999 556,-999"/>
<text text-anchor="start" x="594" y="-1005.8" font-family="Helvetica,sans-Serif" font-size="14.00">dim</text>
<polygon fill="none" stroke="black" points="399,-978 399,-999 659,-999 659,-978 399,-978"/>
<text text-anchor="start" x="478.5" y="-984.8" font-family="Helvetica,sans-Serif" font-size="14.00">repeat 8 times</text>
<polygon fill="none" stroke="black" points="399,-957 399,-978 433,-978 433,-957 399,-957"/>
<text text-anchor="start" x="406.5" y="-963.8" font-family="Helvetica,sans-Serif" font-size="14.00">80</text>
<polygon fill="none" stroke="black" points="433,-957 433,-978 467,-978 467,-957 433,-957"/>
<text text-anchor="start" x="445" y="-963.8" font-family="Helvetica,sans-Serif" font-size="14.00">8</text>
<polygon fill="none" stroke="black" points="467,-957 467,-978 556,-978 556,-957 467,-957"/>
<text text-anchor="start" x="498" y="-963.8" font-family="Helvetica,sans-Serif" font-size="14.00">f8le</text>
<polygon fill="none" stroke="black" points="556,-957 556,-978 659,-978 659,-957 556,-957"/>
<text text-anchor="start" x="574.5" y="-963.8" font-family="Helvetica,sans-Serif" font-size="14.00">intent_p1</text>
<polygon fill="none" stroke="black" points="399,-936 399,-957 433,-957 433,-936 399,-936"/>
<text text-anchor="start" x="406.5" y="-942.8" font-family="Helvetica,sans-Serif" font-size="14.00">88</text>
<polygon fill="none" stroke="black" points="433,-936 433,-957 467,-957 467,-936 433,-936"/>
<text text-anchor="start" x="445" y="-942.8" font-family="Helvetica,sans-Serif" font-size="14.00">8</text>
<polygon fill="none" stroke="black" points="467,-936 467,-957 556,-957 556,-936 467,-936"/>
<text text-anchor="start" x="498" y="-942.8" font-family="Helvetica,sans-Serif" font-size="14.00">f8le</text>
<polygon fill="none" stroke="black" points="556,-936 556,-957 659,-957 659,-936 556,-936"/>
<text text-anchor="start" x="574.5" y="-942.8" font-family="Helvetica,sans-Serif" font-size="14.00">intent_p2</text>
<polygon fill="none" stroke="black" points="399,-915 399,-936 433,-936 433,-915 399,-915"/>
<text text-anchor="start" x="406.5" y="-921.8" font-family="Helvetica,sans-Serif" font-size="14.00">96</text>
<polygon fill="none" stroke="black" points="433,-915 433,-936 467,-936 467,-915 433,-915"/>
<text text-anchor="start" x="445" y="-921.8" font-family="Helvetica,sans-Serif" font-size="14.00">8</text>
<polygon fill="none" stroke="black" points="467,-915 467,-936 556,-936 556,-915 467,-915"/>
<text text-anchor="start" x="498" y="-921.8" font-family="Helvetica,sans-Serif" font-size="14.00">f8le</text>
<polygon fill="none" stroke="black" points="556,-915 556,-936 659,-936 659,-915 556,-915"/>
<text text-anchor="start" x="574.5" y="-921.8" font-family="Helvetica,sans-Serif" font-size="14.00">intent_p3</text>
<polygon fill="none" stroke="black" points="399,-894 399,-915 433,-915 433,-894 399,-894"/>
<text text-anchor="start" x="402" y="-900.8" font-family="Helvetica,sans-Serif" font-size="14.00">104</text>
<polygon fill="none" stroke="black" points="433,-894 433,-915 467,-915 467,-894 433,-894"/>
<text text-anchor="start" x="445" y="-900.8" font-family="Helvetica,sans-Serif" font-size="14.00">8</text>
<polygon fill="none" stroke="black" points="467,-894 467,-915 556,-915 556,-894 467,-894"/>
<text text-anchor="start" x="498" y="-900.8" font-family="Helvetica,sans-Serif" font-size="14.00">f8le</text>
<polygon fill="none" stroke="black" points="556,-894 556,-915 659,-915 659,-894 556,-894"/>
<text text-anchor="start" x="583.5" y="-900.8" font-family="Helvetica,sans-Serif" font-size="14.00">pixdim</text>
<polygon fill="none" stroke="black" points="399,-873 399,-894 659,-894 659,-873 399,-873"/>
<text text-anchor="start" x="478.5" y="-879.8" font-family="Helvetica,sans-Serif" font-size="14.00">repeat 8 times</text>
<polygon fill="none" stroke="black" points="399,-852 399,-873 433,-873 433,-852 399,-852"/>
<text text-anchor="start" x="402" y="-858.8" font-family="Helvetica,sans-Serif" font-size="14.00">168</text>
<polygon fill="none" stroke="black" points="433,-852 433,-873 467,-873 467,-852 433,-852"/>
<text text-anchor="start" x="445" y="-858.8" font-family="Helvetica,sans-Serif" font-size="14.00">8</text>
<polygon fill="none" stroke="black" points="467,-852 467,-873 556,-873 556,-852 467,-852"/>
<text text-anchor="start" x="497" y="-858.8" font-family="Helvetica,sans-Serif" font-size="14.00">s8le</text>
<polygon fill="none" stroke="black" points="556,-852 556,-873 659,-873 659,-852 556,-852"/>
<text text-anchor="start" x="572" y="-858.8" font-family="Helvetica,sans-Serif" font-size="14.00">vox_offset</text>
<polygon fill="none" stroke="black" points="399,-831 399,-852 433,-852 433,-831 399,-831"/>
<text text-anchor="start" x="402" y="-837.8" font-family="Helvetica,sans-Serif" font-size="14.00">176</text>
<polygon fill="none" stroke="black" points="433,-831 433,-852 467,-852 467,-831 433,-831"/>
<text text-anchor="start" x="445" y="-837.8" font-family="Helvetica,sans-Serif" font-size="14.00">8</text>
<polygon fill="none" stroke="black" points="467,-831 467,-852 556,-852 556,-831 467,-831"/>
<text text-anchor="start" x="498" y="-837.8" font-family="Helvetica,sans-Serif" font-size="14.00">f8le</text>
<polygon fill="none" stroke="black" points="556,-831 556,-852 659,-852 659,-831 556,-831"/>
<text text-anchor="start" x="576" y="-837.8" font-family="Helvetica,sans-Serif" font-size="14.00">scl_slope</text>
<polygon fill="none" stroke="black" points="399,-810 399,-831 433,-831 433,-810 399,-810"/>
<text text-anchor="start" x="402" y="-816.8" font-family="Helvetica,sans-Serif" font-size="14.00">184</text>
<polygon fill="none" stroke="black" points="433,-810 433,-831 467,-831 467,-810 433,-810"/>
<text text-anchor="start" x="445" y="-816.8" font-family="Helvetica,sans-Serif" font-size="14.00">8</text>
<polygon fill="none" stroke="black" points="467,-810 467,-831 556,-831 556,-810 467,-810"/>
<text text-anchor="start" x="498" y="-816.8" font-family="Helvetica,sans-Serif" font-size="14.00">f8le</text>
<polygon fill="none" stroke="black" points="556,-810 556,-831 659,-831 659,-810 556,-810"/>
<text text-anchor="start" x="578.5" y="-816.8" font-family="Helvetica,sans-Serif" font-size="14.00">scl_inter</text>
<polygon fill="none" stroke="black" points="399,-789 399,-810 433,-810 433,-789 399,-789"/>
<text text-anchor="start" x="402" y="-795.8" font-family="Helvetica,sans-Serif" font-size="14.00">192</text>
<polygon fill="none" stroke="black" points="433,-789 433,-810 467,-810 467,-789 433,-789"/>
<text text-anchor="start" x="445" y="-795.8" font-family="Helvetica,sans-Serif" font-size="14.00">8</text>
<polygon fill="none" stroke="black" points="467,-789 467,-810 556,-810 556,-789 467,-789"/>
<text text-anchor="start" x="498" y="-795.8" font-family="Helvetica,sans-Serif" font-size="14.00">f8le</text>
<polygon fill="none" stroke="black" points="556,-789 556,-810 659,-810 659,-789 556,-789"/>
<text text-anchor="start" x="579" y="-795.8" font-family="Helvetica,sans-Serif" font-size="14.00">cal_max</text>
<polygon fill="none" stroke="black" points="399,-768 399,-789 433,-789 433,-768 399,-768"/>
<text text-anchor="start" x="402" y="-774.8" font-family="Helvetica,sans-Serif" font-size="14.00">200</text>
<polygon fill="none" stroke="black" points="433,-768 433,-789 467,-789 467,-768 433,-768"/>
<text text-anchor="start" x="445" y="-774.8" font-family="Helvetica,sans-Serif" font-size="14.00">8</text>
<polygon fill="none" stroke="black" points="467,-768 467,-789 556,-789 556,-768 467,-768"/>
<text text-anchor="start" x="498" y="-774.8" font-family="Helvetica,sans-Serif" font-size="14.00">f8le</text>
<polygon fill="none" stroke="black" points="556,-768 556,-789 659,-789 659,-768 556,-768"/>
<text text-anchor="start" x="581" y="-774.8" font-family="Helvetica,sans-Serif" font-size="14.00">cal_min</text>
<polygon fill="none" stroke="black" points="399,-747 399,-768 433,-768 433,-747 399,-747"/>
<text text-anchor="start" x="402" y="-753.8" font-family="Helvetica,sans-Serif" font-size="14.00">208</text>
<polygon fill="none" stroke="black" points="433,-747 433,-768 467,-768 467,-747 433,-747"/>
<text text-anchor="start" x="445" y="-753.8" font-family="Helvetica,sans-Serif" font-size="14.00">8</text>
<polygon fill="none" stroke="black" points="467,-747 467,-768 556,-768 556,-747 467,-747"/>
<text text-anchor="start" x="498" y="-753.8" font-family="Helvetica,sans-Serif" font-size="14.00">f8le</text>
<polygon fill="none" stroke="black" points="556,-747 556,-768 659,-768 659,-747 556,-747"/>
<text text-anchor="start" x="559" y="-753.8" font-family="Helvetica,sans-Serif" font-size="14.00">slice_duration</text>
<polygon fill="none" stroke="black" points="399,-726 399,-747 433,-747 433,-726 399,-726"/>
<text text-anchor="start" x="402" y="-732.8" font-family="Helvetica,sans-Serif" font-size="14.00">216</text>
<polygon fill="none" stroke="black" points="433,-726 433,-747 467,-747 467,-726 433,-726"/>
<text text-anchor="start" x="445" y="-732.8" font-family="Helvetica,sans-Serif" font-size="14.00">8</text>
<polygon fill="none" stroke="black" points="467,-726 467,-747 556,-747 556,-726 467,-726"/>
<text text-anchor="start" x="498" y="-732.8" font-family="Helvetica,sans-Serif" font-size="14.00">f8le</text>
<polygon fill="none" stroke="black" points="556,-726 556,-747 659,-747 659,-726 556,-726"/>
<text text-anchor="start" x="585" y="-732.8" font-family="Helvetica,sans-Serif" font-size="14.00">toffset</text>
<polygon fill="none" stroke="black" points="399,-705 399,-726 433,-726 433,-705 399,-705"/>
<text text-anchor="start" x="402" y="-711.8" font-family="Helvetica,sans-Serif" font-size="14.00">224</text>
<polygon fill="none" stroke="black" points="433,-705 433,-726 467,-726 467,-705 433,-705"/>
<text text-anchor="start" x="445" y="-711.8" font-family="Helvetica,sans-Serif" font-size="14.00">8</text>
<polygon fill="none" stroke="black" points="467,-705 467,-726 556,-726 556,-705 467,-705"/>
<text text-anchor="start" x="497" y="-711.8" font-family="Helvetica,sans-Serif" font-size="14.00">s8le</text>
<polygon fill="none" stroke="black" points="556,-705 556,-726 659,-726 659,-705 556,-705"/>
<text text-anchor="start" x="572.5" y="-711.8" font-family="Helvetica,sans-Serif" font-size="14.00">slice_start</text>
<polygon fill="none" stroke="black" points="399,-684 399,-705 433,-705 433,-684 399,-684"/>
<text text-anchor="start" x="402" y="-690.8" font-family="Helvetica,sans-Serif" font-size="14.00">232</text>
<polygon fill="none" stroke="black" points="433,-684 433,-705 467,-705 467,-684 433,-684"/>
<text text-anchor="start" x="445" y="-690.8" font-family="Helvetica,sans-Serif" font-size="14.00">8</text>
<polygon fill="none" stroke="black" points="467,-684 467,-705 556,-705 556,-684 467,-684"/>
<text text-anchor="start" x="497" y="-690.8" font-family="Helvetica,sans-Serif" font-size="14.00">s8le</text>
<polygon fill="none" stroke="black" points="556,-684 556,-705 659,-705 659,-684 556,-684"/>
<text text-anchor="start" x="575.5" y="-690.8" font-family="Helvetica,sans-Serif" font-size="14.00">slice_end</text>
<polygon fill="none" stroke="black" points="399,-663 399,-684 433,-684 433,-663 399,-663"/>
<text text-anchor="start" x="402" y="-669.8" font-family="Helvetica,sans-Serif" font-size="14.00">240</text>
<polygon fill="none" stroke="black" points="433,-663 433,-684 467,-684 467,-663 433,-663"/>
<text text-anchor="start" x="440.5" y="-669.8" font-family="Helvetica,sans-Serif" font-size="14.00">80</text>
<polygon fill="none" stroke="black" points="467,-663 467,-684 556,-684 556,-663 467,-663"/>
<text text-anchor="start" x="476" y="-669.8" font-family="Helvetica,sans-Serif" font-size="14.00">str(UTF&#45;8)</text>
<polygon fill="none" stroke="black" points="556,-663 556,-684 659,-684 659,-663 556,-663"/>
<text text-anchor="start" x="581.5" y="-669.8" font-family="Helvetica,sans-Serif" font-size="14.00">descrip</text>
<polygon fill="none" stroke="black" points="399,-642 399,-663 433,-663 433,-642 399,-642"/>
<text text-anchor="start" x="402" y="-648.8" font-family="Helvetica,sans-Serif" font-size="14.00">320</text>
<polygon fill="none" stroke="black" points="433,-642 433,-663 467,-663 467,-642 433,-642"/>
<text text-anchor="start" x="440.5" y="-648.8" font-family="Helvetica,sans-Serif" font-size="14.00">24</text>
<polygon fill="none" stroke="black" points="467,-642 467,-663 556,-663 556,-642 467,-642"/>
<text text-anchor="start" x="476" y="-648.8" font-family="Helvetica,sans-Serif" font-size="14.00">str(UTF&#45;8)</text>
<polygon fill="none" stroke="black" points="556,-642 556,-663 659,-663 659,-642 556,-642"/>
<text text-anchor="start" x="580.5" y="-648.8" font-family="Helvetica,sans-Serif" font-size="14.00">aux_file</text>
<polygon fill="none" stroke="black" points="399,-621 399,-642 433,-642 433,-621 399,-621"/>
<text text-anchor="start" x="402" y="-627.8" font-family="Helvetica,sans-Serif" font-size="14.00">344</text>
<polygon fill="none" stroke="black" points="433,-621 433,-642 467,-642 467,-621 433,-621"/>
<text text-anchor="start" x="445" y="-627.8" font-family="Helvetica,sans-Serif" font-size="14.00">4</text>
<polygon fill="none" stroke="black" points="467,-621 467,-642 556,-642 556,-621 467,-621"/>
<text text-anchor="start" x="470" y="-627.8" font-family="Helvetica,sans-Serif" font-size="14.00">s4le→Xform</text>
<polygon fill="none" stroke="black" points="556,-621 556,-642 659,-642 659,-621 556,-621"/>
<text text-anchor="start" x="566.5" y="-627.8" font-family="Helvetica,sans-Serif" font-size="14.00">qform_code</text>
<polygon fill="none" stroke="black" points="399,-600 399,-621 433,-621 433,-600 399,-600"/>
<text text-anchor="start" x="402" y="-606.8" font-family="Helvetica,sans-Serif" font-size="14.00">348</text>
<polygon fill="none" stroke="black" points="433,-600 433,-621 467,-621 467,-600 433,-600"/>
<text text-anchor="start" x="445" y="-606.8" font-family="Helvetica,sans-Serif" font-size="14.00">4</text>
<polygon fill="none" stroke="black" points="467,-600 467,-621 556,-621 556,-600 467,-600"/>
<text text-anchor="start" x="470" y="-606.8" font-family="Helvetica,sans-Serif" font-size="14.00">s4le→Xform</text>
<polygon fill="none" stroke="black" points="556,-600 556,-621 659,-621 659,-600 556,-600"/>
<text text-anchor="start" x="567.5" y="-606.8" font-family="Helvetica,sans-Serif" font-size="14.00">sform_code</text>
<polygon fill="none" stroke="black" points="399,-579 399,-600 433,-600 433,-579 399,-579"/>
<text text-anchor="start" x="402" y="-585.8" font-family="Helvetica,sans-Serif" font-size="14.00">352</text>
<polygon fill="none" stroke="black" points="433,-579 433,-600 467,-600 467,-579 433,-579"/>
<text text-anchor="start" x="445" y="-585.8" font-family="Helvetica,sans-Serif" font-size="14.00">8</text>
<polygon fill="none" stroke="black" points="467,-579 467,-600 556,-600 556,-579 467,-579"/>
<text text-anchor="start" x="498" y="-585.8" font-family="Helvetica,sans-Serif" font-size="14.00">f8le</text>
<polygon fill="none" stroke="black" points="556,-579 556,-600 659,-600 659,-579 556,-579"/>
<text text-anchor="start" x="572.5" y="-585.8" font-family="Helvetica,sans-Serif" font-size="14.00">quatern_b</text>
<polygon fill="none" stroke="black" points="399,-558 399,-579 433,-579 433,-558 399,-558"/>
<text text-anchor="start" x="402" y="-564.8" font-family="Helvetica,sans-Serif" font-size="14.00">360</text>
<polygon fill="none" stroke="black" points="433,-558 433,-579 467,-579 467,-558 433,-558"/>
<text text-anchor="start" x="445" y="-564.8" font-family="Helvetica,sans-Serif" font-size="14.00">8</text>
<polygon fill="none" stroke="black" points="467,-558 467,-579 556,-579 556,-558 467,-558"/>
<text text-anchor="start" x="498" y="-564.8" font-family="Helvetica,sans-Serif" font-size="14.00">f8le</text>
<polygon fill="none" stroke="black" points="556,-558 556,-579 659,-579 659,-558 556,-558"/>
<text text-anchor="start" x="573" y="-564.8" font-family="Helvetica,sans-Serif" font-size="14.00">quatern_c</text>
<polygon fill="none" stroke="black" points="399,-537 399,-558 433,-558 433,-537 399,-537"/>
<text text-anchor="start" x="402" y="-543.8" font-family="Helvetica,sans-Serif" font-size="14.00">368</text>
<polygon fill="none" stroke="black" points="433,-537 433,-558 467,-558 467,-537 433,-537"/>
<text text-anchor="start" x="445" y="-543.8" font-family="Helvetica,sans-Serif" font-size="14.00">8</text>
<polygon fill="none" stroke="black" points="467,-537 467,-558 556,-558 556,-537 467,-537"/>
<text text-anchor="start" x="498" y="-543.8" font-family="Helvetica,sans-Serif" font-size="14.00">f8le</text>
<polygon fill="none" stroke="black" points="556,-537 556,-558 659,-558 659,-537 556,-537"/>
<text text-anchor="start" x="572.5" y="-543.8" font-family="Helvetica,sans-Serif" font-size="14.00">quatern_d</text>
<polygon fill="none" stroke="black" points="399,-516 399,-537 433,-537 433,-516 399,-516"/>
<text text-anchor="start" x="402" y="-522.8" font-family="Helvetica,sans-Serif" font-size="14.00">376</text>
<polygon fill="none" stroke="black" points="433,-516 433,-537 467,-537 467,-516 433,-516"/>
<text text-anchor="start" x="445" y="-522.8" font-family="Helvetica,sans-Serif" font-size="14.00">8</text>
<polygon fill="none" stroke="black" points="467,-516 467,-537 556,-537 556,-516 467,-516"/>
<text text-anchor="start" x="498" y="-522.8" font-family="Helvetica,sans-Serif" font-size="14.00">f8le</text>
<polygon fill="none" stroke="black" points="556,-516 556,-537 659,-537 659,-516 556,-516"/>
<text text-anchor="start" x="575.5" y="-522.8" font-family="Helvetica,sans-Serif" font-size="14.00">qoffset_x</text>
<polygon fill="none" stroke="black" points="399,-495 399,-516 433,-516 433,-495 399,-495"/>
<text text-anchor="start" x="402" y="-501.8" font-family="Helvetica,sans-Serif" font-size="14.00">384</text>
<polygon fill="none" stroke="black" points="433,-495 433,-516 467,-516 467,-495 433,-495"/>
<text text-anchor="start" x="445" y="-501.8" font-family="Helvetica,sans-Serif" font-size="14.00">8</text>
<polygon fill="none" stroke="black" points="467,-495 467,-516 556,-516 556,-495 467,-495"/>
<text text-anchor="start" x="498" y="-501.8" font-family="Helvetica,sans-Serif" font-size="14.00">f8le</text>
<polygon fill="none" stroke="black" points="556,-495 556,-516 659,-516 659,-495 556,-495"/>
<text text-anchor="start" x="575.5" y="-501.8" font-family="Helvetica,sans-Serif" font-size="14.00">qoffset_y</text>
<polygon fill="none" stroke="black" points="399,-474 399,-495 433,-495 433,-474 399,-474"/>
<text text-anchor="start" x="402" y="-480.8" font-family="Helvetica,sans-Serif" font-size="14.00">392</text>
<polygon fill="none" stroke="black" points="433,-474 433,-495 467,-495 467,-474 433,-474"/>
<text text-anchor="start" x="445" y="-480.8" font-family="Helvetica,sans-Serif" font-size="14.00">8</text>
<polygon fill="none" stroke="black" points="467,-474 467,-495 556,-495 556,-474 467,-474"/>
<text text-anchor="start" x="498" y="-480.8" font-family="Helvetica,sans-Serif" font-size="14.00">f8le</text>
<polygon fill="none" stroke="black" points="556,-474 556,-495 659,-495 659,-474 556,-474"/>
<text text-anchor="start" x="576" y="-480.8" font-family="Helvetica,sans-Serif" font-size="14.00">qoffset_z</text>
<polygon fill="none" stroke="black" points="399,-453 399,-474 433,-474 433,-453 399,-453"/>
<text text-anchor="start" x="402" y="-459.8" font-family="Helvetica,sans-Serif" font-size="14.00">400</text>
<polygon fill="none" stroke="black" points="433,-453 433,-474 467,-474 467,-453 433,-453"/>
<text text-anchor="start" x="445" y="-459.8" font-family="Helvetica,sans-Serif" font-size="14.00">8</text>
<polygon fill="none" stroke="black" points="467,-453 467,-474 556,-474 556,-453 467,-453"/>
<text text-anchor="start" x="498" y="-459.8" font-family="Helvetica,sans-Serif" font-size="14.00">f8le</text>
<polygon fill="none" stroke="black" points="556,-453 556,-474 659,-474 659,-453 556,-453"/>
<text text-anchor="start" x="583.5" y="-459.8" font-family="Helvetica,sans-Serif" font-size="14.00">srow_x</text>
<polygon fill="none" stroke="black" points="399,-432 399,-453 659,-453 659,-432 399,-432"/>
<text text-anchor="start" x="478.5" y="-438.8" font-family="Helvetica,sans-Serif" font-size="14.00">repeat 4 times</text>
<polygon fill="none" stroke="black" points="399,-411 399,-432 433,-432 433,-411 399,-411"/>
<text text-anchor="start" x="402" y="-417.8" font-family="Helvetica,sans-Serif" font-size="14.00">432</text>
<polygon fill="none" stroke="black" points="433,-411 433,-432 467,-432 467,-411 433,-411"/>
<text text-anchor="start" x="445" y="-417.8" font-family="Helvetica,sans-Serif" font-size="14.00">8</text>
<polygon fill="none" stroke="black" points="467,-411 467,-432 556,-432 556,-411 467,-411"/>
<text text-anchor="start" x="498" y="-417.8" font-family="Helvetica,sans-Serif" font-size="14.00">f8le</text>
<polygon fill="none" stroke="black" points="556,-411 556,-432 659,-432 659,-411 556,-411"/>
<text text-anchor="start" x="583.5" y="-417.8" font-family="Helvetica,sans-Serif" font-size="14.00">srow_y</text>
<polygon fill="none" stroke="black" points="399,-390 399,-411 659,-411 659,-390 399,-390"/>
<text text-anchor="start" x="478.5" y="-396.8" font-family="Helvetica,sans-Serif" font-size="14.00">repeat 4 times</text>
<polygon fill="none" stroke="black" points="399,-369 399,-390 433,-390 433,-369 399,-369"/>
<text text-anchor="start" x="402" y="-375.8" font-family="Helvetica,sans-Serif" font-size="14.00">464</text>
<polygon fill="none" stroke="black" points="433,-369 433,-390 467,-390 467,-369 433,-369"/>
<text text-anchor="start" x="445" y="-375.8" font-family="Helvetica,sans-Serif" font-size="14.00">8</text>
<polygon fill="none" stroke="black" points="467,-369 467,-390 556,-390 556,-369 467,-369"/>
<text text-anchor="start" x="498" y="-375.8" font-family="Helvetica,sans-Serif" font-size="14.00">f8le</text>
<polygon fill="none" stroke="black" points="556,-369 556,-390 659,-390 659,-369 556,-369"/>
<text text-anchor="start" x="584" y="-375.8" font-family="Helvetica,sans-Serif" font-size="14.00">srow_z</text>
<polygon fill="none" stroke="black" points="399,-348 399,-369 659,-369 659,-348 399,-348"/>
<text text-anchor="start" x="478.5" y="-354.8" font-family="Helvetica,sans-Serif" font-size="14.00">repeat 4 times</text>
<polygon fill="none" stroke="black" points="399,-327 399,-348 433,-348 433,-327 399,-327"/>
<text text-anchor="start" x="402" y="-333.8" font-family="Helvetica,sans-Serif" font-size="14.00">496</text>
<polygon fill="none" stroke="black" points="433,-327 433,-348 467,-348 467,-327 433,-327"/>
<text text-anchor="start" x="445" y="-333.8" font-family="Helvetica,sans-Serif" font-size="14.00">4</text>
<polygon fill="none" stroke="black" points="467,-327 467,-348 556,-348 556,-327 467,-327"/>
<text text-anchor="start" x="497" y="-333.8" font-family="Helvetica,sans-Serif" font-size="14.00">s4le</text>
<polygon fill="none" stroke="black" points="556,-327 556,-348 659,-348 659,-327 556,-327"/>
<text text-anchor="start" x="572" y="-333.8" font-family="Helvetica,sans-Serif" font-size="14.00">slice_code</text>
<polygon fill="none" stroke="black" points="399,-306 399,-327 433,-327 433,-306 399,-306"/>
<text text-anchor="start" x="402" y="-312.8" font-family="Helvetica,sans-Serif" font-size="14.00">500</text>
<polygon fill="none" stroke="black" points="433,-306 433,-327 467,-327 467,-306 433,-306"/>
<text text-anchor="start" x="445" y="-312.8" font-family="Helvetica,sans-Serif" font-size="14.00">4</text>
<polygon fill="none" stroke="black" points="467,-306 467,-327 556,-327 556,-306 467,-306"/>
<text text-anchor="start" x="497" y="-312.8" font-family="Helvetica,sans-Serif" font-size="14.00">s4le</text>
<polygon fill="none" stroke="black" points="556,-306 556,-327 659,-327 659,-306 556,-306"/>
<text text-anchor="start" x="572" y="-312.8" font-family="Helvetica,sans-Serif" font-size="14.00">xyzt_units</text>
<polygon fill="none" stroke="black" points="399,-285 399,-306 433,-306 433,-285 399,-285"/>
<text text-anchor="start" x="402" y="-291.8" font-family="Helvetica,sans-Serif" font-size="14.00">504</text>
<polygon fill="none" stroke="black" points="433,-285 433,-306 467,-306 467,-285 433,-285"/>
<text text-anchor="start" x="445" y="-291.8" font-family="Helvetica,sans-Serif" font-size="14.00">4</text>
<polygon fill="none" stroke="black" points="467,-285 467,-306 556,-306 556,-285 467,-285"/>
<text text-anchor="start" x="470.5" y="-291.8" font-family="Helvetica,sans-Serif" font-size="14.00">s4le→Intent</text>
<polygon fill="none" stroke="black" points="556,-285 556,-306 659,-306 659,-285 556,-285"/>
<text text-anchor="start" x="567" y="-291.8" font-family="Helvetica,sans-Serif" font-size="14.00">intent_code</text>
<polygon fill="none" stroke="black" points="399,-264 399,-285 433,-285 433,-264 399,-264"/>
<text text-anchor="start" x="402" y="-270.8" font-family="Helvetica,sans-Serif" font-size="14.00">508</text>
<polygon fill="none" stroke="black" points="433,-264 433,-285 467,-285 467,-264 433,-264"/>
<text text-anchor="start" x="440.5" y="-270.8" font-family="Helvetica,sans-Serif" font-size="14.00">16</text>
<polygon fill="none" stroke="black" points="467,-264 467,-285 556,-285 556,-264 467,-264"/>
<text text-anchor="start" x="476" y="-270.8" font-family="Helvetica,sans-Serif" font-size="14.00">str(UTF&#45;8)</text>
<polygon fill="none" stroke="black" points="556,-264 556,-285 659,-285 659,-264 556,-264"/>
<text text-anchor="start" x="564" y="-270.8" font-family="Helvetica,sans-Serif" font-size="14.00">intent_name</text>
<polygon fill="none" stroke="black" points="399,-243 399,-264 433,-264 433,-243 399,-243"/>
<text text-anchor="start" x="402" y="-249.8" font-family="Helvetica,sans-Serif" font-size="14.00">524</text>
<polygon fill="none" stroke="black" points="433,-243 433,-264 467,-264 467,-243 433,-243"/>
<text text-anchor="start" x="445" y="-249.8" font-family="Helvetica,sans-Serif" font-size="14.00">1</text>
<polygon fill="none" stroke="black" points="467,-243 467,-264 556,-264 556,-243 467,-243"/>
<text text-anchor="start" x="481" y="-249.8" font-family="Helvetica,sans-Serif" font-size="14.00">s1→Slice</text>
<polygon fill="none" stroke="black" points="556,-243 556,-264 659,-264 659,-243 556,-243"/>
<text text-anchor="start" x="577.5" y="-249.8" font-family="Helvetica,sans-Serif" font-size="14.00">dim_info</text>
<polygon fill="none" stroke="black" points="399,-222 399,-243 433,-243 433,-222 399,-222"/>
<text text-anchor="start" x="402" y="-228.8" font-family="Helvetica,sans-Serif" font-size="14.00">525</text>
<polygon fill="none" stroke="black" points="433,-222 433,-243 467,-243 467,-222 433,-222"/>
<text text-anchor="start" x="440.5" y="-228.8" font-family="Helvetica,sans-Serif" font-size="14.00">15</text>
<polygon fill="none" stroke="black" points="467,-222 467,-243 556,-243 556,-222 467,-222"/>
<text text-anchor="start" x="476" y="-228.8" font-family="Helvetica,sans-Serif" font-size="14.00">str(UTF&#45;8)</text>
<polygon fill="none" stroke="black" points="556,-222 556,-243 659,-243 659,-222 556,-222"/>
<text text-anchor="start" x="568.5" y="-228.8" font-family="Helvetica,sans-Serif" font-size="14.00">unused_str</text>
</g>
<!-- nifti2__seq&#45;&gt;header__seq -->
<g id="edge1" class="edge">
<title>nifti2__seq:header_type&#45;&gt;header__seq</title>
<path fill="none" stroke="black" stroke-width="2" d="M348.5,-168C359.72,-168 372.78,-185.35 386.64,-213.75"/>
<polygon fill="black" stroke="black" stroke-width="2" points="383.53,-215.36 390.97,-222.91 389.86,-212.37 383.53,-215.36"/>
</g>
<!-- header_extension__seq -->
<g id="node5" class="node">
<title>header_extension__seq</title>
<polygon fill="#e0ffe0" stroke="transparent" points="421,-146 421,-167 452,-167 452,-146 421,-146"/>
<polygon fill="none" stroke="black" points="421,-146 421,-167 452,-167 452,-146 421,-146"/>
<text text-anchor="start" x="424" y="-152.8" font-family="Helvetica,sans-Serif" font-size="14.00">pos</text>
<polygon fill="#e0ffe0" stroke="transparent" points="452,-146 452,-167 486,-167 486,-146 452,-146"/>
<polygon fill="none" stroke="black" points="452,-146 452,-167 486,-167 486,-146 452,-146"/>
<text text-anchor="start" x="455" y="-152.8" font-family="Helvetica,sans-Serif" font-size="14.00">size</text>
<polygon fill="#e0ffe0" stroke="transparent" points="486,-146 486,-167 563,-167 563,-146 486,-146"/>
<polygon fill="none" stroke="black" points="486,-146 486,-167 563,-167 563,-146 486,-146"/>
<text text-anchor="start" x="509" y="-152.8" font-family="Helvetica,sans-Serif" font-size="14.00">type</text>
<polygon fill="#e0ffe0" stroke="transparent" points="563,-146 563,-167 637,-167 637,-146 563,-146"/>
<polygon fill="none" stroke="black" points="563,-146 563,-167 637,-167 637,-146 563,-146"/>
<text text-anchor="start" x="593.5" y="-152.8" font-family="Helvetica,sans-Serif" font-size="14.00">id</text>
<polygon fill="none" stroke="black" points="421,-125 421,-146 452,-146 452,-125 421,-125"/>
<text text-anchor="start" x="431.5" y="-131.8" font-family="Helvetica,sans-Serif" font-size="14.00">0</text>
<polygon fill="none" stroke="black" points="452,-125 452,-146 486,-146 486,-125 452,-125"/>
<text text-anchor="start" x="464" y="-131.8" font-family="Helvetica,sans-Serif" font-size="14.00">4</text>
<polygon fill="none" stroke="black" points="486,-125 486,-146 563,-146 563,-125 486,-125"/>
<text text-anchor="start" x="489" y="-131.8" font-family="Helvetica,sans-Serif" font-size="14.00">str(UTF&#45;8)</text>
<polygon fill="none" stroke="black" points="563,-125 563,-146 637,-146 637,-125 563,-125"/>
<text text-anchor="start" x="566" y="-131.8" font-family="Helvetica,sans-Serif" font-size="14.00">extension</text>
</g>
<!-- nifti2__seq&#45;&gt;header_extension__seq -->
<g id="edge2" class="edge">
<title>nifti2__seq:header_extension_type&#45;&gt;header_extension__seq</title>
<path fill="none" stroke="black" stroke-width="2" d="M348.5,-146C365.99,-146 384.43,-146 402.57,-146"/>
<polygon fill="black" stroke="black" stroke-width="2" points="402.61,-149.5 412.61,-146 402.61,-142.5 402.61,-149.5"/>
</g>
<!-- data__seq -->
<g id="node6" class="node">
<title>data__seq</title>
<polygon fill="#e0ffe0" stroke="transparent" points="460,-49 460,-70 491,-70 491,-49 460,-49"/>
<polygon fill="none" stroke="black" points="460,-49 460,-70 491,-70 491,-49 460,-49"/>
<text text-anchor="start" x="463" y="-55.8" font-family="Helvetica,sans-Serif" font-size="14.00">pos</text>
<polygon fill="#e0ffe0" stroke="transparent" points="491,-49 491,-70 525,-70 525,-49 491,-49"/>
<polygon fill="none" stroke="black" points="491,-49 491,-70 525,-70 525,-49 491,-49"/>
<text text-anchor="start" x="494" y="-55.8" font-family="Helvetica,sans-Serif" font-size="14.00">size</text>
<polygon fill="#e0ffe0" stroke="transparent" points="525,-49 525,-70 562,-70 562,-49 525,-49"/>
<polygon fill="none" stroke="black" points="525,-49 525,-70 562,-70 562,-49 525,-49"/>
<text text-anchor="start" x="528" y="-55.8" font-family="Helvetica,sans-Serif" font-size="14.00">type</text>
<polygon fill="#e0ffe0" stroke="transparent" points="562,-49 562,-70 599,-70 599,-49 562,-49"/>
<polygon fill="none" stroke="black" points="562,-49 562,-70 599,-70 599,-49 562,-49"/>
<text text-anchor="start" x="574" y="-55.8" font-family="Helvetica,sans-Serif" font-size="14.00">id</text>
<polygon fill="none" stroke="black" points="460,-28 460,-49 491,-49 491,-28 460,-28"/>
<text text-anchor="start" x="470.5" y="-34.8" font-family="Helvetica,sans-Serif" font-size="14.00">0</text>
<polygon fill="none" stroke="black" points="491,-28 491,-49 525,-49 525,-28 491,-28"/>
<text text-anchor="start" x="501.5" y="-34.8" font-family="Helvetica,sans-Serif" font-size="14.00">⇲</text>
<polygon fill="none" stroke="black" points="525,-28 525,-49 562,-49 562,-28 525,-28"/>
<polygon fill="none" stroke="black" points="562,-28 562,-49 599,-49 599,-28 562,-28"/>
<text text-anchor="start" x="565" y="-34.8" font-family="Helvetica,sans-Serif" font-size="14.00">data</text>
</g>
<!-- nifti2__seq&#45;&gt;data__seq -->
<g id="edge3" class="edge">
<title>nifti2__seq:data_type&#45;&gt;data__seq</title>
<path fill="none" stroke="black" stroke-width="2" d="M348.5,-125C365.4,-125 367.52,-115.79 383,-109 406.68,-98.61 432.74,-87.68 456.15,-78.03"/>
<polygon fill="black" stroke="black" stroke-width="2" points="457.74,-81.16 465.66,-74.13 455.08,-74.69 457.74,-81.16"/>
</g>
<!-- header__inst__spatial_units -->
<g id="node3" class="node">
<title>header__inst__spatial_units</title>
<polygon fill="#e0ffe0" stroke="transparent" points="723.5,-282 723.5,-303 817.5,-303 817.5,-282 723.5,-282"/>
<polygon fill="none" stroke="black" points="723.5,-282 723.5,-303 817.5,-303 817.5,-282 723.5,-282"/>
<text text-anchor="start" x="764" y="-288.8" font-family="Helvetica,sans-Serif" font-size="14.00">id</text>
<polygon fill="#e0ffe0" stroke="transparent" points="817.5,-282 817.5,-303 1295.5,-303 1295.5,-282 817.5,-282"/>
<polygon fill="none" stroke="black" points="817.5,-282 817.5,-303 1295.5,-303 1295.5,-282 817.5,-282"/>
<text text-anchor="start" x="1037.5" y="-288.8" font-family="Helvetica,sans-Serif" font-size="14.00">value</text>
<polygon fill="none" stroke="black" points="723.5,-261 723.5,-282 817.5,-282 817.5,-261 723.5,-261"/>
<text text-anchor="start" x="726.5" y="-267.8" font-family="Helvetica,sans-Serif" font-size="14.00">spatial_units</text>
<polygon fill="none" stroke="black" points="817.5,-261 817.5,-282 1295.5,-282 1295.5,-261 817.5,-261"/>
<text text-anchor="start" x="820.5" y="-267.8" font-family="Helvetica,sans-Serif" font-size="14.00">Kaitai::Struct::Stream::resolve_enum(Nifti2::UNITS, (xyzt_units &amp; 7))</text>
</g>
<!-- header__seq&#45;&gt;header__inst__spatial_units -->
<g id="edge4" class="edge">
<title>header__seq:xyzt_units_type&#45;&gt;header__inst__spatial_units</title>
<path fill="none" stroke="#404040" d="M660,-316C709.05,-316 761.81,-312.62 811.05,-308"/>
<polygon fill="#404040" stroke="#404040" points="811.56,-311.46 821.18,-307.02 810.89,-304.5 811.56,-311.46"/>
</g>
<!-- header__inst__temporal_units -->
<g id="node4" class="node">
<title>header__inst__temporal_units</title>
<polygon fill="#e0ffe0" stroke="transparent" points="711.5,-350 711.5,-371 821.5,-371 821.5,-350 711.5,-350"/>
<polygon fill="none" stroke="black" points="711.5,-350 711.5,-371 821.5,-371 821.5,-350 711.5,-350"/>
<text text-anchor="start" x="760" y="-356.8" font-family="Helvetica,sans-Serif" font-size="14.00">id</text>
<polygon fill="#e0ffe0" stroke="transparent" points="821.5,-350 821.5,-371 1308.5,-371 1308.5,-350 821.5,-350"/>
<polygon fill="none" stroke="black" points="821.5,-350 821.5,-371 1308.5,-371 1308.5,-350 821.5,-350"/>
<text text-anchor="start" x="1046" y="-356.8" font-family="Helvetica,sans-Serif" font-size="14.00">value</text>
<polygon fill="none" stroke="black" points="711.5,-329 711.5,-350 821.5,-350 821.5,-329 711.5,-329"/>
<text text-anchor="start" x="714.5" y="-335.8" font-family="Helvetica,sans-Serif" font-size="14.00">temporal_units</text>
<polygon fill="none" stroke="black" points="821.5,-329 821.5,-350 1308.5,-350 1308.5,-329 821.5,-329"/>
<text text-anchor="start" x="824.5" y="-335.8" font-family="Helvetica,sans-Serif" font-size="14.00">Kaitai::Struct::Stream::resolve_enum(Nifti2::UNITS, (xyzt_units &amp; 56))</text>
</g>
<!-- header__seq&#45;&gt;header__inst__temporal_units -->
<g id="edge5" class="edge">
<title>header__seq:xyzt_units_type&#45;&gt;header__inst__temporal_units</title>
<path fill="none" stroke="#404040" d="M660,-316C709.05,-316 761.81,-319.38 811.05,-324"/>
<polygon fill="#404040" stroke="#404040" points="810.89,-327.5 821.18,-324.98 811.56,-320.54 810.89,-327.5"/>
</g>
</g>
</svg>
